<svg id="visual" viewBox="0 0 1400 800" width="1400" height="800" xmlns="http://www.w3.org/2000/svg" xmlns:xlink="http://www.w3.org/1999/xlink" version="1.1"><rect x="0" y="0" width="1400" height="800" fill="#ffffff"></rect><path d="M0 473L15.5 478C31 483 62 493 93.2 504.3C124.3 515.7 155.7 528.3 186.8 521.8C218 515.3 249 489.7 280 488C311 486.3 342 508.7 373.2 513.8C404.3 519 435.7 507 466.8 508.2C498 509.3 529 523.7 560 528C591 532.3 622 526.7 653.2 530.3C684.3 534 715.7 547 746.8 555.5C778 564 809 568 840 555.8C871 543.7 902 515.3 933.2 506.3C964.3 497.3 995.7 507.7 1026.8 507C1058 506.3 1089 494.7 1120 487.7C1151 480.7 1182 478.3 1213.2 484.7C1244.3 491 1275.7 506 1306.8 504.8C1338 503.7 1369 486.3 1384.5 477.7L1400 469L1400 801L1384.5 801C1369 801 1338 801 1306.8 801C1275.7 801 1244.3 801 1213.2 801C1182 801 1151 801 1120 801C1089 801 1058 801 1026.8 801C995.7 801 964.3 801 933.2 801C902 801 871 801 840 801C809 801 778 801 746.8 801C715.7 801 684.3 801 653.2 801C622 801 591 801 560 801C529 801 498 801 466.8 801C435.7 801 404.3 801 373.2 801C342 801 311 801 280 801C249 801 218 801 186.8 801C155.7 801 124.3 801 93.2 801C62 801 31 801 15.5 801L0 801Z" fill="#1a659e"></path><path d="M0 597L15.5 585.8C31 574.7 62 552.3 93.2 547C124.3 541.7 155.7 553.3 186.8 560C218 566.7 249 568.3 280 568.3C311 568.3 342 566.7 373.2 568C404.3 569.3 435.7 573.7 466.8 582.8C498 592 529 606 560 607.3C591 608.7 622 597.3 653.2 590C684.3 582.7 715.7 579.3 746.8 572.2C778 565 809 554 840 545.5C871 537 902 531 933.2 539.5C964.3 548 995.7 571 1026.8 586.2C1058 601.3 1089 608.7 1120 603.3C1151 598 1182 580 1213.2 572C1244.3 564 1275.7 566 1306.8 569.7C1338 573.3 1369 578.7 1384.5 581.3L1400 584L1400 801L1384.5 801C1369 801 1338 801 1306.8 801C1275.7 801 1244.3 801 1213.2 801C1182 801 1151 801 1120 801C1089 801 1058 801 1026.8 801C995.7 801 964.3 801 933.2 801C902 801 871 801 840 801C809 801 778 801 746.8 801C715.7 801 684.3 801 653.2 801C622 801 591 801 560 801C529 801 498 801 466.8 801C435.7 801 404.3 801 373.2 801C342 801 311 801 280 801C249 801 218 801 186.8 801C155.7 801 124.3 801 93.2 801C62 801 31 801 15.5 801L0 801Z" fill="#2f6ea0"></path><path d="M0 590L15.5 596.2C31 602.3 62 614.7 93.2 618.5C124.3 622.3 155.7 617.7 186.8 613.2C218 608.7 249 604.3 280 600.5C311 596.7 342 593.3 373.2 599.2C404.3 605 435.7 620 466.8 626.5C498 633 529 631 560 631.8C591 632.7 622 636.3 653.2 633.8C684.3 631.3 715.7 622.7 746.8 619.2C778 615.7 809 617.3 840 619C871 620.7 902 622.3 933.2 618C964.3 613.7 995.7 603.3 1026.8 598.8C1058 594.3 1089 595.7 1120 608.3C1151 621 1182 645 1213.2 654C1244.3 663 1275.7 657 1306.8 647.7C1338 638.3 1369 625.7 1384.5 619.3L1400 613L1400 801L1384.5 801C1369 801 1338 801 1306.8 801C1275.7 801 1244.3 801 1213.2 801C1182 801 1151 801 1120 801C1089 801 1058 801 1026.8 801C995.7 801 964.3 801 933.2 801C902 801 871 801 840 801C809 801 778 801 746.8 801C715.7 801 684.3 801 653.2 801C622 801 591 801 560 801C529 801 498 801 466.8 801C435.7 801 404.3 801 373.2 801C342 801 311 801 280 801C249 801 218 801 186.8 801C155.7 801 124.3 801 93.2 801C62 801 31 801 15.5 801L0 801Z" fill="#4076a1"></path><path d="M0 716L15.5 706.3C31 696.7 62 677.3 93.2 672.2C124.3 667 155.7 676 186.8 674.2C218 672.3 249 659.7 280 663.5C311 667.3 342 687.7 373.2 691C404.3 694.3 435.7 680.7 466.8 671.2C498 661.7 529 656.3 560 657C591 657.7 622 664.3 653.2 672.3C684.3 680.3 715.7 689.7 746.8 692.3C778 695 809 691 840 688.5C871 686 902 685 933.2 686.8C964.3 688.7 995.7 693.3 1026.8 698.2C1058 703 1089 708 1120 704.5C1151 701 1182 689 1213.2 682C1244.3 675 1275.7 673 1306.8 672.5C1338 672 1369 673 1384.5 673.5L1400 674L1400 801L1384.5 801C1369 801 1338 801 1306.8 801C1275.7 801 1244.3 801 1213.2 801C1182 801 1151 801 1120 801C1089 801 1058 801 1026.8 801C995.7 801 964.3 801 933.2 801C902 801 871 801 840 801C809 801 778 801 746.8 801C715.7 801 684.3 801 653.2 801C622 801 591 801 560 801C529 801 498 801 466.8 801C435.7 801 404.3 801 373.2 801C342 801 311 801 280 801C249 801 218 801 186.8 801C155.7 801 124.3 801 93.2 801C62 801 31 801 15.5 801L0 801Z" fill="#507ea3"></path><path d="M0 743L15.5 736.3C31 729.7 62 716.3 93.2 717.5C124.3 718.7 155.7 734.3 186.8 735.2C218 736 249 722 280 715.3C311 708.7 342 709.3 373.2 715.5C404.3 721.7 435.7 733.3 466.8 742.3C498 751.3 529 757.7 560 750.8C591 744 622 724 653.2 724C684.3 724 715.7 744 746.8 745.8C778 747.7 809 731.3 840 726.8C871 722.3 902 729.7 933.2 733.8C964.3 738 995.7 739 1026.8 740C1058 741 1089 742 1120 738.8C1151 735.7 1182 728.3 1213.2 731.5C1244.3 734.7 1275.7 748.3 1306.8 753.8C1338 759.3 1369 756.7 1384.5 755.3L1400 754L1400 801L1384.5 801C1369 801 1338 801 1306.8 801C1275.7 801 1244.3 801 1213.2 801C1182 801 1151 801 1120 801C1089 801 1058 801 1026.8 801C995.7 801 964.3 801 933.2 801C902 801 871 801 840 801C809 801 778 801 746.8 801C715.7 801 684.3 801 653.2 801C622 801 591 801 560 801C529 801 498 801 466.8 801C435.7 801 404.3 801 373.2 801C342 801 311 801 280 801C249 801 218 801 186.8 801C155.7 801 124.3 801 93.2 801C62 801 31 801 15.5 801L0 801Z" fill="#5f86a4"></path></svg>