<svg id="visual" viewBox="0 0 900 600" width="900" height="600" xmlns="http://www.w3.org/2000/svg" xmlns:xlink="http://www.w3.org/1999/xlink" version="1.1"><rect x="0" y="0" width="900" height="600" fill="#FFFFFF"></rect><path d="M0 430L12.5 421.2C25 412.3 50 394.7 75 384.8C100 375 125 373 150 384.8C175 396.7 200 422.3 225 430.3C250 438.3 275 428.7 300 426.5C325 424.3 350 429.7 375 434.2C400 438.7 425 442.3 450 436.3C475 430.3 500 414.7 525 400.8C550 387 575 375 600 374.2C625 373.3 650 383.7 675 393.7C700 403.7 725 413.3 750 422.2C775 431 800 439 825 437.2C850 435.3 875 423.7 887.5 417.8L900 412L900 601L887.5 601C875 601 850 601 825 601C800 601 775 601 750 601C725 601 700 601 675 601C650 601 625 601 600 601C575 601 550 601 525 601C500 601 475 601 450 601C425 601 400 601 375 601C350 601 325 601 300 601C275 601 250 601 225 601C200 601 175 601 150 601C125 601 100 601 75 601C50 601 25 601 12.5 601L0 601Z" fill="#1253b4"></path><path d="M0 433L12.5 439C25 445 50 457 75 453.2C100 449.3 125 429.7 150 417C175 404.3 200 398.7 225 399C250 399.3 275 405.7 300 411.8C325 418 350 424 375 421.7C400 419.3 425 408.7 450 415.5C475 422.3 500 446.7 525 452C550 457.3 575 443.7 600 437.7C625 431.7 650 433.3 675 434.2C700 435 725 435 750 438.7C775 442.3 800 449.7 825 447.3C850 445 875 433 887.5 427L900 421L900 601L887.5 601C875 601 850 601 825 601C800 601 775 601 750 601C725 601 700 601 675 601C650 601 625 601 600 601C575 601 550 601 525 601C500 601 475 601 450 601C425 601 400 601 375 601C350 601 325 601 300 601C275 601 250 601 225 601C200 601 175 601 150 601C125 601 100 601 75 601C50 601 25 601 12.5 601L0 601Z" fill="#318adf"></path><path d="M0 504L12.5 497.5C25 491 50 478 75 473.2C100 468.3 125 471.7 150 474.5C175 477.3 200 479.7 225 478.2C250 476.7 275 471.3 300 471.8C325 472.3 350 478.7 375 481.5C400 484.3 425 483.7 450 482.7C475 481.7 500 480.3 525 476C550 471.7 575 464.3 600 459C625 453.7 650 450.3 675 457.7C700 465 725 483 750 485.7C775 488.3 800 475.7 825 471C850 466.3 875 469.7 887.5 471.3L900 473L900 601L887.5 601C875 601 850 601 825 601C800 601 775 601 750 601C725 601 700 601 675 601C650 601 625 601 600 601C575 601 550 601 525 601C500 601 475 601 450 601C425 601 400 601 375 601C350 601 325 601 300 601C275 601 250 601 225 601C200 601 175 601 150 601C125 601 100 601 75 601C50 601 25 601 12.5 601L0 601Z" fill="#4facf7"></path><path d="M0 502L12.5 503.7C25 505.3 50 508.7 75 507.7C100 506.7 125 501.3 150 499.3C175 497.3 200 498.7 225 499.7C250 500.7 275 501.3 300 506.8C325 512.3 350 522.7 375 519.8C400 517 425 501 450 494.2C475 487.3 500 489.7 525 489.7C550 489.7 575 487.3 600 488C625 488.7 650 492.3 675 495.7C700 499 725 502 750 502.7C775 503.3 800 501.7 825 498.2C850 494.7 875 489.3 887.5 486.7L900 484L900 601L887.5 601C875 601 850 601 825 601C800 601 775 601 750 601C725 601 700 601 675 601C650 601 625 601 600 601C575 601 550 601 525 601C500 601 475 601 450 601C425 601 400 601 375 601C350 601 325 601 300 601C275 601 250 601 225 601C200 601 175 601 150 601C125 601 100 601 75 601C50 601 25 601 12.5 601L0 601Z" fill="#318adf"></path><path d="M0 536L12.5 536.5C25 537 50 538 75 544C100 550 125 561 150 565.7C175 570.3 200 568.7 225 564.5C250 560.3 275 553.7 300 552.2C325 550.7 350 554.3 375 552.2C400 550 425 542 450 537.5C475 533 500 532 525 537C550 542 575 553 600 555C625 557 650 550 675 549C700 548 725 553 750 552.3C775 551.7 800 545.3 825 546C850 546.7 875 554.3 887.5 558.2L900 562L900 601L887.5 601C875 601 850 601 825 601C800 601 775 601 750 601C725 601 700 601 675 601C650 601 625 601 600 601C575 601 550 601 525 601C500 601 475 601 450 601C425 601 400 601 375 601C350 601 325 601 300 601C275 601 250 601 225 601C200 601 175 601 150 601C125 601 100 601 75 601C50 601 25 601 12.5 601L0 601Z" fill="#1253b4"></path></svg>