<svg id="visual" width="900" height="600" xmlns="http://www.w3.org/2000/svg" version="1.1"><path fill="#FFF" d="M0 0h900v600H0z"/><path d="m0 357 25 6.7c25 6.6 75 20 125 26.3 50 6.3 100 5.7 150 .7s100-14.4 150-21.2c50-6.8 100-11.2 150 2.5s100 45.3 150 48.3 100-22.6 125-35.5l25-12.8v229H0Z" fill="#1357be"/><path d="m0 442 25-5c25-5 75-15 125-16.8 50-1.9 100 4.5 150 15.6 50 11.2 100 27.2 150 27 50-.1 100-16.5 150-20.1 50-3.7 100 5.3 150 14.6 50 9.4 100 19 125 23.9l25 4.8v115H0Z" fill="#2f8de4"/><path d="m0 462 25 6c25 6 75 18 125 27.3 50 9.4 100 16 150 7.7s100-31.7 150-35.5c50-3.8 100 11.8 150 22.2 50 10.3 100 15.3 150 16.5 50 1.1 100-1.5 125-2.9l25-1.3v99H0Z" fill="#4facf7"/><path d="m0 482 25 5.8c25 5.9 75 17.5 125 24.7 50 7.2 100 9.8 150 5.2 50-4.7 100-16.7 150-23.9 50-7.1 100-9.5 150-10.5s100-.6 150 2.4 100 8.6 125 11.5l25 2.8v101H0Z" fill="#2f8de4"/><path d="m0 573 25-4.2c25-4.1 75-12.5 125-15.1 50-2.7 100 .3 150 3.1 50 2.9 100 5.5 150 4.7 50-.8 100-5.2 150-10.5s100-11.7 150-10.7 100 9.4 125 13.5l25 4.2v43H0Z" fill="#1357be"/></svg>