<svg id="visual" viewBox="0 0 900 600" width="900" height="600" xmlns="http://www.w3.org/2000/svg" xmlns:xlink="http://www.w3.org/1999/xlink" version="1.1"><rect x="0" y="0" width="900" height="600" fill="#FFFFFF"></rect><path d="M0 357L25 363.7C50 370.3 100 383.7 150 390C200 396.3 250 395.7 300 390.7C350 385.7 400 376.3 450 369.5C500 362.7 550 358.3 600 372C650 385.7 700 417.3 750 420.3C800 423.3 850 397.7 875 384.8L900 372L900 601L875 601C850 601 800 601 750 601C700 601 650 601 600 601C550 601 500 601 450 601C400 601 350 601 300 601C250 601 200 601 150 601C100 601 50 601 25 601L0 601Z" fill="#1357be"></path><path d="M0 442L25 437C50 432 100 422 150 420.2C200 418.3 250 424.7 300 435.8C350 447 400 463 450 462.8C500 462.7 550 446.3 600 442.7C650 439 700 448 750 457.3C800 466.7 850 476.3 875 481.2L900 486L900 601L875 601C850 601 800 601 750 601C700 601 650 601 600 601C550 601 500 601 450 601C400 601 350 601 300 601C250 601 200 601 150 601C100 601 50 601 25 601L0 601Z" fill="#2f8de4"></path><path d="M0 462L25 468C50 474 100 486 150 495.3C200 504.7 250 511.3 300 503C350 494.7 400 471.3 450 467.5C500 463.7 550 479.3 600 489.7C650 500 700 505 750 506.2C800 507.3 850 504.7 875 503.3L900 502L900 601L875 601C850 601 800 601 750 601C700 601 650 601 600 601C550 601 500 601 450 601C400 601 350 601 300 601C250 601 200 601 150 601C100 601 50 601 25 601L0 601Z" fill="#4facf7"></path><path d="M0 482L25 487.8C50 493.7 100 505.3 150 512.5C200 519.7 250 522.3 300 517.7C350 513 400 501 450 493.8C500 486.7 550 484.3 600 483.3C650 482.3 700 482.7 750 485.7C800 488.7 850 494.3 875 497.2L900 500L900 601L875 601C850 601 800 601 750 601C700 601 650 601 600 601C550 601 500 601 450 601C400 601 350 601 300 601C250 601 200 601 150 601C100 601 50 601 25 601L0 601Z" fill="#2f8de4"></path><path d="M0 573L25 568.8C50 564.7 100 556.3 150 553.7C200 551 250 554 300 556.8C350 559.7 400 562.3 450 561.5C500 560.7 550 556.3 600 551C650 545.7 700 539.3 750 540.3C800 541.3 850 549.7 875 553.8L900 558L900 601L875 601C850 601 800 601 750 601C700 601 650 601 600 601C550 601 500 601 450 601C400 601 350 601 300 601C250 601 200 601 150 601C100 601 50 601 25 601L0 601Z" fill="#1357be"></path></svg>