<svg id="visual" viewBox="0 0 900 600" width="900" height="600" xmlns="http://www.w3.org/2000/svg" xmlns:xlink="http://www.w3.org/1999/xlink" version="1.1"><rect x="0" y="0" width="900" height="600" fill="#FFFFFF"></rect><path d="M0 392L25 387.2C50 382.3 100 372.7 150 380.5C200 388.3 250 413.7 300 425.5C350 437.3 400 435.7 450 427.5C500 419.3 550 404.7 600 402.5C650 400.3 700 410.7 750 419.2C800 427.7 850 434.3 875 437.7L900 441L900 601L875 601C850 601 800 601 750 601C700 601 650 601 600 601C550 601 500 601 450 601C400 601 350 601 300 601C250 601 200 601 150 601C100 601 50 601 25 601L0 601Z" fill="#1357be"></path><path d="M0 437L25 439.7C50 442.3 100 447.7 150 444.5C200 441.3 250 429.7 300 420.7C350 411.7 400 405.3 450 404.8C500 404.3 550 409.7 600 423.2C650 436.7 700 458.3 750 463.2C800 468 850 456 875 450L900 444L900 601L875 601C850 601 800 601 750 601C700 601 650 601 600 601C550 601 500 601 450 601C400 601 350 601 300 601C250 601 200 601 150 601C100 601 50 601 25 601L0 601Z" fill="#2f8de4"></path><path d="M0 491L25 493C50 495 100 499 150 503.5C200 508 250 513 300 502.7C350 492.3 400 466.7 450 462.2C500 457.7 550 474.3 600 485.3C650 496.3 700 501.7 750 499C800 496.3 850 485.7 875 480.3L900 475L900 601L875 601C850 601 800 601 750 601C700 601 650 601 600 601C550 601 500 601 450 601C400 601 350 601 300 601C250 601 200 601 150 601C100 601 50 601 25 601L0 601Z" fill="#4facf7"></path><path d="M0 504L25 503.5C50 503 100 502 150 506.5C200 511 250 521 300 520.2C350 519.3 400 507.7 450 505C500 502.3 550 508.7 600 510.3C650 512 700 509 750 505.3C800 501.7 850 497.3 875 495.2L900 493L900 601L875 601C850 601 800 601 750 601C700 601 650 601 600 601C550 601 500 601 450 601C400 601 350 601 300 601C250 601 200 601 150 601C100 601 50 601 25 601L0 601Z" fill="#2f8de4"></path><path d="M0 527L25 531.2C50 535.3 100 543.7 150 551C200 558.3 250 564.7 300 564.8C350 565 400 559 450 556C500 553 550 553 600 553.7C650 554.3 700 555.7 750 559.2C800 562.7 850 568.3 875 571.2L900 574L900 601L875 601C850 601 800 601 750 601C700 601 650 601 600 601C550 601 500 601 450 601C400 601 350 601 300 601C250 601 200 601 150 601C100 601 50 601 25 601L0 601Z" fill="#1357be"></path></svg>