<svg id="visual" viewBox="0 0 4800 800" width="4800" height="800" xmlns="http://www.w3.org/2000/svg" xmlns:xlink="http://www.w3.org/1999/xlink" version="1.1"><rect x="0" y="0" width="4800" height="800" fill="#FFFFFF"></rect><path d="M0 593L61.5 570.2C123 547.3 246 501.7 369 498.7C492 495.7 615 535.3 738.2 555.2C861.3 575 984.7 575 1107.8 555.2C1231 535.3 1354 495.7 1477 477.8C1600 460 1723 464 1846 468.7C1969 473.3 2092 478.7 2215.2 497.2C2338.3 515.7 2461.7 547.3 2584.8 560C2708 572.7 2831 566.3 2954 565.2C3077 564 3200 568 3323 571.2C3446 574.3 3569 576.7 3692.2 561.2C3815.3 545.7 3938.7 512.3 4061.8 505.5C4185 498.7 4308 518.3 4431 528C4554 537.7 4677 537.3 4738.5 537.2L4800 537L4800 801L4738.5 801C4677 801 4554 801 4431 801C4308 801 4185 801 4061.8 801C3938.7 801 3815.3 801 3692.2 801C3569 801 3446 801 3323 801C3200 801 3077 801 2954 801C2831 801 2708 801 2584.8 801C2461.7 801 2338.3 801 2215.2 801C2092 801 1969 801 1846 801C1723 801 1600 801 1477 801C1354 801 1231 801 1107.8 801C984.7 801 861.3 801 738.2 801C615 801 492 801 369 801C246 801 123 801 61.5 801L0 801Z" fill="#1a659e"></path><path d="M0 517L61.5 531.5C123 546 246 575 369 591.8C492 608.7 615 613.3 738.2 615.2C861.3 617 984.7 616 1107.8 604.5C1231 593 1354 571 1477 568.8C1600 566.7 1723 584.3 1846 583.8C1969 583.3 2092 564.7 2215.2 557.2C2338.3 549.7 2461.7 553.3 2584.8 557.7C2708 562 2831 567 2954 577.5C3077 588 3200 604 3323 609.2C3446 614.3 3569 608.7 3692.2 608.5C3815.3 608.3 3938.7 613.7 4061.8 599C4185 584.3 4308 549.7 4431 540.3C4554 531 4677 547 4738.5 555L4800 563L4800 801L4738.5 801C4677 801 4554 801 4431 801C4308 801 4185 801 4061.8 801C3938.7 801 3815.3 801 3692.2 801C3569 801 3446 801 3323 801C3200 801 3077 801 2954 801C2831 801 2708 801 2584.8 801C2461.7 801 2338.3 801 2215.2 801C2092 801 1969 801 1846 801C1723 801 1600 801 1477 801C1354 801 1231 801 1107.8 801C984.7 801 861.3 801 738.2 801C615 801 492 801 369 801C246 801 123 801 61.5 801L0 801Z" fill="#2e6fa2"></path><path d="M0 578L61.5 576.7C123 575.3 246 572.7 369 570C492 567.3 615 564.7 738.2 573.8C861.3 583 984.7 604 1107.8 607.2C1231 610.3 1354 595.7 1477 600.2C1600 604.7 1723 628.3 1846 639C1969 649.7 2092 647.3 2215.2 631C2338.3 614.7 2461.7 584.3 2584.8 577.8C2708 571.3 2831 588.7 2954 590C3077 591.3 3200 576.7 3323 581.5C3446 586.3 3569 610.7 3692.2 622.7C3815.3 634.7 3938.7 634.3 4061.8 625.5C4185 616.7 4308 599.3 4431 592.7C4554 586 4677 590 4738.5 592L4800 594L4800 801L4738.5 801C4677 801 4554 801 4431 801C4308 801 4185 801 4061.8 801C3938.7 801 3815.3 801 3692.2 801C3569 801 3446 801 3323 801C3200 801 3077 801 2954 801C2831 801 2708 801 2584.8 801C2461.7 801 2338.3 801 2215.2 801C2092 801 1969 801 1846 801C1723 801 1600 801 1477 801C1354 801 1231 801 1107.8 801C984.7 801 861.3 801 738.2 801C615 801 492 801 369 801C246 801 123 801 61.5 801L0 801Z" fill="#3f78a6"></path><path d="M0 663L61.5 656.3C123 649.7 246 636.3 369 633.8C492 631.3 615 639.7 738.2 640.8C861.3 642 984.7 636 1107.8 639.2C1231 642.3 1354 654.7 1477 656.7C1600 658.7 1723 650.3 1846 652.5C1969 654.7 2092 667.3 2215.2 674.7C2338.3 682 2461.7 684 2584.8 688.3C2708 692.7 2831 699.3 2954 694.3C3077 689.3 3200 672.7 3323 664.8C3446 657 3569 658 3692.2 660.3C3815.3 662.7 3938.7 666.3 4061.8 672C4185 677.7 4308 685.3 4431 688.8C4554 692.3 4677 691.7 4738.5 691.3L4800 691L4800 801L4738.5 801C4677 801 4554 801 4431 801C4308 801 4185 801 4061.8 801C3938.7 801 3815.3 801 3692.2 801C3569 801 3446 801 3323 801C3200 801 3077 801 2954 801C2831 801 2708 801 2584.8 801C2461.7 801 2338.3 801 2215.2 801C2092 801 1969 801 1846 801C1723 801 1600 801 1477 801C1354 801 1231 801 1107.8 801C984.7 801 861.3 801 738.2 801C615 801 492 801 369 801C246 801 123 801 61.5 801L0 801Z" fill="#4f82aa"></path><path d="M0 703L61.5 706C123 709 246 715 369 712.8C492 710.7 615 700.3 738.2 689.8C861.3 679.3 984.7 668.7 1107.8 674.5C1231 680.3 1354 702.7 1477 705.3C1600 708 1723 691 1846 687.7C1969 684.3 2092 694.7 2215.2 702.2C2338.3 709.7 2461.7 714.3 2584.8 708.5C2708 702.7 2831 686.3 2954 688.7C3077 691 3200 712 3323 721.7C3446 731.3 3569 729.7 3692.2 725C3815.3 720.3 3938.7 712.7 4061.8 714.8C4185 717 4308 729 4431 734C4554 739 4677 737 4738.5 736L4800 735L4800 801L4738.5 801C4677 801 4554 801 4431 801C4308 801 4185 801 4061.8 801C3938.7 801 3815.3 801 3692.2 801C3569 801 3446 801 3323 801C3200 801 3077 801 2954 801C2831 801 2708 801 2584.8 801C2461.7 801 2338.3 801 2215.2 801C2092 801 1969 801 1846 801C1723 801 1600 801 1477 801C1354 801 1231 801 1107.8 801C984.7 801 861.3 801 738.2 801C615 801 492 801 369 801C246 801 123 801 61.5 801L0 801Z" fill="#5d8bae"></path><path d="M0 748L61.5 752.2C123 756.3 246 764.7 369 766.2C492 767.7 615 762.3 738.2 761.7C861.3 761 984.7 765 1107.8 761.3C1231 757.7 1354 746.3 1477 743.7C1600 741 1723 747 1846 747.5C1969 748 2092 743 2215.2 741.8C2338.3 740.7 2461.7 743.3 2584.8 743.5C2708 743.7 2831 741.3 2954 740.5C3077 739.7 3200 740.3 3323 744.2C3446 748 3569 755 3692.2 751.8C3815.3 748.7 3938.7 735.3 4061.8 730.5C4185 725.7 4308 729.3 4431 730.7C4554 732 4677 731 4738.5 730.5L4800 730L4800 801L4738.5 801C4677 801 4554 801 4431 801C4308 801 4185 801 4061.8 801C3938.7 801 3815.3 801 3692.2 801C3569 801 3446 801 3323 801C3200 801 3077 801 2954 801C2831 801 2708 801 2584.8 801C2461.7 801 2338.3 801 2215.2 801C2092 801 1969 801 1846 801C1723 801 1600 801 1477 801C1354 801 1231 801 1107.8 801C984.7 801 861.3 801 738.2 801C615 801 492 801 369 801C246 801 123 801 61.5 801L0 801Z" fill="#6c94b2"></path></svg>