<svg id="visual" viewBox="0 0 4800 800" width="4800" height="800" xmlns="http://www.w3.org/2000/svg" xmlns:xlink="http://www.w3.org/1999/xlink" version="1.1"><rect x="0" y="0" width="4800" height="800" fill="#FFFFFF"></rect><path d="M0 500L61.5 516.8C123 533.7 246 567.3 369 571C492 574.7 615 548.3 738.2 529.8C861.3 511.3 984.7 500.7 1107.8 502.5C1231 504.3 1354 518.7 1477 535.7C1600 552.7 1723 572.3 1846 559.2C1969 546 2092 500 2215.2 484.7C2338.3 469.3 2461.7 484.7 2584.8 507.5C2708 530.3 2831 560.7 2954 568.5C3077 576.3 3200 561.7 3323 538.5C3446 515.3 3569 483.7 3692.2 492.7C3815.3 501.7 3938.7 551.3 4061.8 552.8C4185 554.3 4308 507.7 4431 498.2C4554 488.7 4677 516.3 4738.5 530.2L4800 544L4800 801L4738.5 801C4677 801 4554 801 4431 801C4308 801 4185 801 4061.8 801C3938.7 801 3815.3 801 3692.2 801C3569 801 3446 801 3323 801C3200 801 3077 801 2954 801C2831 801 2708 801 2584.8 801C2461.7 801 2338.3 801 2215.2 801C2092 801 1969 801 1846 801C1723 801 1600 801 1477 801C1354 801 1231 801 1107.8 801C984.7 801 861.3 801 738.2 801C615 801 492 801 369 801C246 801 123 801 61.5 801L0 801Z" fill="#1a659e"></path><path d="M0 630L61.5 627C123 624 246 618 369 616.2C492 614.3 615 616.7 738.2 617.2C861.3 617.7 984.7 616.3 1107.8 605.5C1231 594.7 1354 574.3 1477 568.5C1600 562.7 1723 571.3 1846 571.7C1969 572 2092 564 2215.2 554.5C2338.3 545 2461.7 534 2584.8 530C2708 526 2831 529 2954 533.2C3077 537.3 3200 542.7 3323 557.8C3446 573 3569 598 3692.2 600C3815.3 602 3938.7 581 4061.8 570.3C4185 559.7 4308 559.3 4431 568.3C4554 577.3 4677 595.7 4738.5 604.8L4800 614L4800 801L4738.5 801C4677 801 4554 801 4431 801C4308 801 4185 801 4061.8 801C3938.7 801 3815.3 801 3692.2 801C3569 801 3446 801 3323 801C3200 801 3077 801 2954 801C2831 801 2708 801 2584.8 801C2461.7 801 2338.3 801 2215.2 801C2092 801 1969 801 1846 801C1723 801 1600 801 1477 801C1354 801 1231 801 1107.8 801C984.7 801 861.3 801 738.2 801C615 801 492 801 369 801C246 801 123 801 61.5 801L0 801Z" fill="#2e6fa2"></path><path d="M0 634L61.5 623.5C123 613 246 592 369 594C492 596 615 621 738.2 632.5C861.3 644 984.7 642 1107.8 634.2C1231 626.3 1354 612.7 1477 609.5C1600 606.3 1723 613.7 1846 624.3C1969 635 2092 649 2215.2 638.7C2338.3 628.3 2461.7 593.7 2584.8 594.3C2708 595 2831 631 2954 644.3C3077 657.7 3200 648.3 3323 633.3C3446 618.3 3569 597.7 3692.2 588.8C3815.3 580 3938.7 583 4061.8 581.2C4185 579.3 4308 572.7 4431 584.5C4554 596.3 4677 626.7 4738.5 641.8L4800 657L4800 801L4738.5 801C4677 801 4554 801 4431 801C4308 801 4185 801 4061.8 801C3938.7 801 3815.3 801 3692.2 801C3569 801 3446 801 3323 801C3200 801 3077 801 2954 801C2831 801 2708 801 2584.8 801C2461.7 801 2338.3 801 2215.2 801C2092 801 1969 801 1846 801C1723 801 1600 801 1477 801C1354 801 1231 801 1107.8 801C984.7 801 861.3 801 738.2 801C615 801 492 801 369 801C246 801 123 801 61.5 801L0 801Z" fill="#3f78a6"></path><path d="M0 701L61.5 699.3C123 697.7 246 694.3 369 684.2C492 674 615 657 738.2 658.3C861.3 659.7 984.7 679.3 1107.8 689C1231 698.7 1354 698.3 1477 694.7C1600 691 1723 684 1846 673.3C1969 662.7 2092 648.3 2215.2 640.7C2338.3 633 2461.7 632 2584.8 640.3C2708 648.7 2831 666.3 2954 678.7C3077 691 3200 698 3323 687.2C3446 676.3 3569 647.7 3692.2 643.8C3815.3 640 3938.7 661 4061.8 674C4185 687 4308 692 4431 686.8C4554 681.7 4677 666.3 4738.5 658.7L4800 651L4800 801L4738.5 801C4677 801 4554 801 4431 801C4308 801 4185 801 4061.8 801C3938.7 801 3815.3 801 3692.2 801C3569 801 3446 801 3323 801C3200 801 3077 801 2954 801C2831 801 2708 801 2584.8 801C2461.7 801 2338.3 801 2215.2 801C2092 801 1969 801 1846 801C1723 801 1600 801 1477 801C1354 801 1231 801 1107.8 801C984.7 801 861.3 801 738.2 801C615 801 492 801 369 801C246 801 123 801 61.5 801L0 801Z" fill="#4f82aa"></path><path d="M0 740L61.5 731.2C123 722.3 246 704.7 369 692.7C492 680.7 615 674.3 738.2 679.2C861.3 684 984.7 700 1107.8 705.7C1231 711.3 1354 706.7 1477 702.7C1600 698.7 1723 695.3 1846 698.3C1969 701.3 2092 710.7 2215.2 718.2C2338.3 725.7 2461.7 731.3 2584.8 723.5C2708 715.7 2831 694.3 2954 685.8C3077 677.3 3200 681.7 3323 679.2C3446 676.7 3569 667.3 3692.2 667C3815.3 666.7 3938.7 675.3 4061.8 683C4185 690.7 4308 697.3 4431 702.2C4554 707 4677 710 4738.5 711.5L4800 713L4800 801L4738.5 801C4677 801 4554 801 4431 801C4308 801 4185 801 4061.8 801C3938.7 801 3815.3 801 3692.2 801C3569 801 3446 801 3323 801C3200 801 3077 801 2954 801C2831 801 2708 801 2584.8 801C2461.7 801 2338.3 801 2215.2 801C2092 801 1969 801 1846 801C1723 801 1600 801 1477 801C1354 801 1231 801 1107.8 801C984.7 801 861.3 801 738.2 801C615 801 492 801 369 801C246 801 123 801 61.5 801L0 801Z" fill="#5d8bae"></path><path d="M0 712L61.5 716.5C123 721 246 730 369 730.8C492 731.7 615 724.3 738.2 725.3C861.3 726.3 984.7 735.7 1107.8 736.7C1231 737.7 1354 730.3 1477 729.8C1600 729.3 1723 735.7 1846 737C1969 738.3 2092 734.7 2215.2 732.7C2338.3 730.7 2461.7 730.3 2584.8 733.7C2708 737 2831 744 2954 745.5C3077 747 3200 743 3323 746.3C3446 749.7 3569 760.3 3692.2 755.7C3815.3 751 3938.7 731 4061.8 721.3C4185 711.7 4308 712.3 4431 719C4554 725.7 4677 738.3 4738.5 744.7L4800 751L4800 801L4738.5 801C4677 801 4554 801 4431 801C4308 801 4185 801 4061.8 801C3938.7 801 3815.3 801 3692.2 801C3569 801 3446 801 3323 801C3200 801 3077 801 2954 801C2831 801 2708 801 2584.8 801C2461.7 801 2338.3 801 2215.2 801C2092 801 1969 801 1846 801C1723 801 1600 801 1477 801C1354 801 1231 801 1107.8 801C984.7 801 861.3 801 738.2 801C615 801 492 801 369 801C246 801 123 801 61.5 801L0 801Z" fill="#6c94b2"></path></svg>